<svg width="2005" height="558" viewBox="0 0 2005 558" fill="none" xmlns="http://www.w3.org/2000/svg">
<path d="M758.031 335.596C740.852 335.596 725.338 332.59 711.489 326.577C697.746 320.458 686.419 311.761 677.508 300.488C668.704 289.107 663.121 275.58 660.759 259.905L706.496 253.141C709.717 266.454 716.374 276.707 726.466 283.9C736.558 291.094 748.046 294.69 760.929 294.69C768.123 294.69 775.101 293.563 781.865 291.308C788.629 289.054 794.158 285.725 798.453 281.324C802.855 276.922 805.056 271.5 805.056 265.058C805.056 262.696 804.68 260.441 803.928 258.294C803.284 256.04 802.157 253.946 800.546 252.013C798.936 250.081 796.628 248.256 793.622 246.538C790.723 244.82 787.019 243.263 782.509 241.868L722.279 224.153C717.769 222.864 712.509 221.039 706.496 218.677C700.591 216.315 694.847 212.933 689.264 208.531C683.681 204.129 679.011 198.332 675.253 191.138C671.603 183.838 669.778 174.658 669.778 163.6C669.778 148.032 673.697 135.095 681.534 124.788C689.372 114.481 699.84 106.804 712.938 101.758C726.036 96.7123 740.53 94.2429 756.42 94.3503C772.417 94.565 786.697 97.3028 799.258 102.564C811.82 107.824 822.341 115.501 830.823 125.593C839.305 135.578 845.424 147.817 849.182 162.311L801.835 170.364C800.117 162.848 796.95 156.514 792.333 151.36C787.717 146.207 782.187 142.288 775.746 139.604C769.411 136.92 762.755 135.47 755.776 135.256C748.905 135.041 742.409 136.007 736.289 138.155C730.277 140.194 725.338 143.201 721.473 147.173C717.716 151.145 715.837 155.869 715.837 161.345C715.837 166.391 717.394 170.525 720.507 173.745C723.621 176.859 727.539 179.382 732.263 181.315C736.987 183.247 741.819 184.858 746.757 186.146L787.019 197.097C793.031 198.707 799.688 200.855 806.988 203.539C814.289 206.116 821.268 209.766 827.924 214.49C834.688 219.107 840.217 225.226 844.512 232.849C848.914 240.472 851.115 250.135 851.115 261.837C851.115 274.291 848.484 285.189 843.223 294.529C838.07 303.763 831.091 311.439 822.288 317.559C813.484 323.571 803.499 328.08 792.333 331.086C781.275 334.093 769.841 335.596 758.031 335.596ZM870.407 330.764L941.267 98.8595H1006.65L1077.51 330.764H1032.42L969.289 126.237H977.663L915.5 330.764H870.407ZM912.923 282.451V241.545H1035.32V282.451H912.923ZM1140.98 330.764V139.765H1067.86V98.8595H1257.9V139.765H1184.78V330.764H1140.98ZM1261.38 330.764L1332.24 98.8595H1397.63L1468.49 330.764H1423.39L1360.26 126.237H1368.64L1306.47 330.764H1261.38ZM1303.9 282.451V241.545H1426.29V282.451H1303.9ZM1497.35 330.764V98.8595H1541.15V205.793L1629.41 98.8595H1682.87L1585.93 213.202L1688.99 330.764H1633.59L1541.15 225.119V330.764H1497.35ZM1798.18 335.596C1774.99 335.596 1754.97 330.55 1738.11 320.458C1721.36 310.365 1708.43 296.247 1699.3 278.103C1690.28 259.958 1685.77 238.861 1685.77 214.812C1685.77 190.763 1690.28 169.666 1699.3 151.521C1708.43 133.377 1721.36 119.259 1738.11 109.166C1754.97 99.0743 1774.99 94.0282 1798.18 94.0282C1821.37 94.0282 1841.34 99.0743 1858.09 109.166C1874.95 119.259 1887.88 133.377 1896.9 151.521C1906.03 169.666 1910.59 190.763 1910.59 214.812C1910.59 238.861 1906.03 259.958 1896.9 278.103C1887.88 296.247 1874.95 310.365 1858.09 320.458C1841.34 330.55 1821.37 335.596 1798.18 335.596ZM1798.18 294.368C1812.89 294.583 1825.13 291.416 1834.9 284.867C1844.67 278.317 1851.97 269.03 1856.8 257.006C1861.74 244.981 1864.21 230.916 1864.21 214.812C1864.21 198.707 1861.74 184.75 1856.8 172.94C1851.97 161.13 1844.67 151.951 1834.9 145.402C1825.13 138.852 1812.89 135.47 1798.18 135.256C1783.47 135.041 1771.23 138.208 1761.46 144.757C1751.69 151.307 1744.34 160.593 1739.4 172.618C1734.57 184.643 1732.15 198.707 1732.15 214.812C1732.15 230.916 1734.57 244.874 1739.4 256.684C1744.34 268.494 1751.69 277.673 1761.46 284.222C1771.23 290.772 1783.47 294.153 1798.18 294.368Z" fill="white"/>
<path d="M699.458 448.625C693.752 448.625 688.605 447.632 684.019 445.646C679.468 443.659 675.712 440.824 672.751 437.141C669.826 433.421 667.966 429.015 667.171 423.923L680.714 421.864C681.87 426.487 684.235 430.062 687.811 432.59C691.422 435.118 695.575 436.382 700.27 436.382C703.051 436.382 705.669 435.949 708.125 435.082C710.581 434.215 712.567 432.951 714.084 431.29C715.637 429.629 716.413 427.588 716.413 425.169C716.413 424.085 716.233 423.092 715.872 422.189C715.511 421.25 714.969 420.42 714.247 419.697C713.56 418.975 712.657 418.325 711.538 417.747C710.455 417.133 709.19 416.61 707.746 416.176L687.594 410.217C685.861 409.712 683.983 409.044 681.96 408.213C679.974 407.346 678.078 406.173 676.272 404.692C674.502 403.175 673.04 401.261 671.884 398.95C670.765 396.602 670.205 393.713 670.205 390.282C670.205 385.262 671.469 381.055 673.997 377.66C676.561 374.229 679.992 371.665 684.29 369.968C688.623 368.27 693.427 367.44 698.699 367.476C704.044 367.512 708.811 368.433 713.001 370.239C717.19 372.008 720.693 374.59 723.51 377.985C726.327 381.38 728.313 385.479 729.469 390.282L715.438 392.72C714.86 389.975 713.741 387.646 712.08 385.732C710.455 383.781 708.45 382.301 706.067 381.29C703.719 380.278 701.209 379.737 698.537 379.664C695.936 379.628 693.517 380.026 691.278 380.856C689.075 381.651 687.287 382.806 685.915 384.323C684.578 385.84 683.91 387.61 683.91 389.632C683.91 391.546 684.488 393.117 685.644 394.345C686.799 395.537 688.226 396.494 689.923 397.216C691.657 397.902 693.408 398.48 695.178 398.95L709.154 402.85C711.068 403.356 713.217 404.042 715.601 404.909C717.984 405.775 720.278 406.985 722.481 408.538C724.684 410.091 726.489 412.131 727.898 414.659C729.342 417.187 730.065 420.402 730.065 424.302C730.065 428.347 729.216 431.904 727.519 434.974C725.857 438.007 723.6 440.535 720.747 442.558C717.894 444.58 714.626 446.097 710.942 447.108C707.294 448.12 703.466 448.625 699.458 448.625ZM758.15 448.625C753.925 448.625 750.35 447.831 747.424 446.242C744.499 444.616 742.278 442.468 740.761 439.795C739.28 437.123 738.54 434.179 738.54 430.965C738.54 428.148 739.01 425.62 739.949 423.381C740.887 421.106 742.332 419.156 744.282 417.531C746.232 415.869 748.76 414.515 751.866 413.468C754.214 412.709 756.958 412.023 760.1 411.409C763.279 410.795 766.709 410.235 770.393 409.73C774.113 409.188 777.995 408.61 782.04 407.996L777.381 410.651C777.417 406.606 776.514 403.626 774.673 401.712C772.831 399.798 769.725 398.841 765.355 398.841C762.719 398.841 760.173 399.455 757.717 400.683C755.261 401.911 753.546 404.024 752.571 407.021L740.653 403.283C742.097 398.336 744.842 394.363 748.887 391.366C752.968 388.368 758.457 386.869 765.355 386.869C770.556 386.869 775.124 387.718 779.061 389.415C783.033 391.113 785.977 393.894 787.891 397.758C788.938 399.816 789.57 401.929 789.787 404.096C790.003 406.227 790.112 408.556 790.112 411.084V447H778.681V434.324L780.577 436.382C777.941 440.608 774.853 443.714 771.314 445.7C767.811 447.65 763.423 448.625 758.15 448.625ZM760.75 438.224C763.712 438.224 766.24 437.701 768.335 436.653C770.429 435.606 772.09 434.324 773.318 432.807C774.582 431.29 775.431 429.864 775.864 428.527C776.551 426.866 776.93 424.97 777.002 422.839C777.11 420.672 777.165 418.921 777.165 417.585L781.173 418.776C777.237 419.39 773.86 419.932 771.043 420.402C768.226 420.871 765.807 421.323 763.784 421.756C761.762 422.153 759.974 422.605 758.421 423.11C756.904 423.652 755.622 424.284 754.575 425.006C753.528 425.729 752.715 426.559 752.137 427.498C751.595 428.437 751.325 429.539 751.325 430.803C751.325 432.247 751.686 433.529 752.408 434.649C753.13 435.732 754.178 436.599 755.55 437.249C756.958 437.899 758.692 438.224 760.75 438.224ZM808.627 473.002L819.895 442.07L820.112 451.171L794.597 388.494H808.194L826.287 434.866H822.82L840.426 388.494H853.482L820.87 473.002H808.627ZM875.805 448.625C871.579 448.625 868.004 447.831 865.079 446.242C862.153 444.616 859.932 442.468 858.415 439.795C856.935 437.123 856.194 434.179 856.194 430.965C856.194 428.148 856.664 425.62 857.603 423.381C858.542 421.106 859.986 419.156 861.937 417.531C863.887 415.869 866.415 414.515 869.521 413.468C871.868 412.709 874.613 412.023 877.755 411.409C880.933 410.795 884.364 410.235 888.047 409.73C891.767 409.188 895.65 408.61 899.694 407.996L895.036 410.651C895.072 406.606 894.169 403.626 892.327 401.712C890.485 399.798 887.379 398.841 883.009 398.841C880.373 398.841 877.827 399.455 875.371 400.683C872.915 401.911 871.2 404.024 870.225 407.021L858.307 403.283C859.752 398.336 862.496 394.363 866.541 391.366C870.622 388.368 876.112 386.869 883.009 386.869C888.21 386.869 892.778 387.718 896.715 389.415C900.688 391.113 903.631 393.894 905.545 397.758C906.592 399.816 907.224 401.929 907.441 404.096C907.658 406.227 907.766 408.556 907.766 411.084V447H896.336V434.324L898.232 436.382C895.595 440.608 892.508 443.714 888.968 445.7C885.465 447.65 881.077 448.625 875.805 448.625ZM878.405 438.224C881.366 438.224 883.894 437.701 885.989 436.653C888.084 435.606 889.745 434.324 890.973 432.807C892.237 431.29 893.085 429.864 893.519 428.527C894.205 426.866 894.584 424.97 894.656 422.839C894.765 420.672 894.819 418.921 894.819 417.585L898.828 418.776C894.891 419.39 891.514 419.932 888.698 420.402C885.881 420.871 883.461 421.323 881.439 421.756C879.416 422.153 877.628 422.605 876.076 423.11C874.559 423.652 873.277 424.284 872.229 425.006C871.182 425.729 870.369 426.559 869.792 427.498C869.25 428.437 868.979 429.539 868.979 430.803C868.979 432.247 869.34 433.529 870.062 434.649C870.785 435.732 871.832 436.599 873.204 437.249C874.613 437.899 876.346 438.224 878.405 438.224ZM962.336 447V418.831C962.336 416.989 962.209 414.948 961.956 412.709C961.704 410.47 961.108 408.321 960.169 406.263C959.266 404.168 957.894 402.453 956.052 401.116C954.246 399.78 951.79 399.112 948.684 399.112C947.023 399.112 945.38 399.383 943.755 399.925C942.13 400.466 940.649 401.405 939.313 402.742C938.013 404.042 936.965 405.847 936.171 408.159C935.376 410.434 934.979 413.359 934.979 416.935L927.232 413.63C927.232 408.646 928.189 404.132 930.103 400.087C932.054 396.042 934.907 392.828 938.663 390.445C942.418 388.025 947.041 386.815 952.531 386.815C956.864 386.815 960.44 387.537 963.257 388.982C966.074 390.427 968.313 392.268 969.974 394.508C971.635 396.747 972.863 399.13 973.658 401.658C974.452 404.186 974.958 406.588 975.174 408.863C975.427 411.102 975.554 412.926 975.554 414.334V447H962.336ZM921.761 447V388.494H933.408V406.642H934.979V447H921.761ZM1014.28 474.628C1011.03 474.628 1007.91 474.122 1004.91 473.111C1001.95 472.1 999.278 470.637 996.895 468.723C994.511 466.845 992.561 464.57 991.044 461.897L1003.07 455.938C1004.19 458.069 1005.76 459.64 1007.78 460.651C1009.84 461.699 1012.03 462.222 1014.34 462.222C1017.05 462.222 1019.47 461.735 1021.6 460.76C1023.73 459.821 1025.37 458.412 1026.53 456.534C1027.72 454.692 1028.28 452.381 1028.21 449.6V432.97H1029.83V388.494H1041.26V449.817C1041.26 451.298 1041.19 452.706 1041.04 454.042C1040.94 455.415 1040.74 456.751 1040.45 458.051C1039.58 461.843 1037.92 464.949 1035.47 467.369C1033.01 469.824 1029.96 471.648 1026.31 472.84C1022.7 474.032 1018.69 474.628 1014.28 474.628ZM1013.15 448.625C1007.77 448.625 1003.07 447.271 999.062 444.562C995.053 441.854 991.947 438.17 989.744 433.511C987.541 428.852 986.44 423.598 986.44 417.747C986.44 411.824 987.541 406.552 989.744 401.929C991.983 397.27 995.143 393.605 999.224 390.932C1003.31 388.224 1008.11 386.869 1013.63 386.869C1019.2 386.869 1023.85 388.224 1027.61 390.932C1031.4 393.605 1034.27 397.27 1036.22 401.929C1038.17 406.588 1039.15 411.861 1039.15 417.747C1039.15 423.562 1038.17 428.816 1036.22 433.511C1034.27 438.17 1031.37 441.854 1027.5 444.562C1023.64 447.271 1018.85 448.625 1013.15 448.625ZM1015.15 436.924C1018.65 436.924 1021.47 436.13 1023.6 434.54C1025.77 432.915 1027.34 430.658 1028.31 427.769C1029.33 424.88 1029.83 421.539 1029.83 417.747C1029.83 413.919 1029.33 410.578 1028.31 407.725C1027.34 404.836 1025.8 402.597 1023.71 401.008C1021.62 399.383 1018.91 398.57 1015.58 398.57C1012.08 398.57 1009.19 399.437 1006.92 401.171C1004.64 402.868 1002.96 405.179 1001.88 408.105C1000.8 410.994 1000.25 414.208 1000.25 417.747C1000.25 421.323 1000.78 424.573 1001.82 427.498C1002.91 430.387 1004.55 432.681 1006.75 434.378C1008.96 436.075 1011.76 436.924 1015.15 436.924ZM1057.54 379.61V367.638H1070.59V379.61H1057.54ZM1057.54 447V388.494H1070.59V447H1057.54ZM1127.25 447V381.235H1102.01V368.993H1165.55V381.235H1140.31V447H1127.25ZM1182.95 448.625C1178.73 448.625 1175.15 447.831 1172.23 446.242C1169.3 444.616 1167.08 442.468 1165.57 439.795C1164.08 437.123 1163.34 434.179 1163.34 430.965C1163.34 428.148 1163.81 425.62 1164.75 423.381C1165.69 421.106 1167.14 419.156 1169.09 417.531C1171.04 415.869 1173.56 414.515 1176.67 413.468C1179.02 412.709 1181.76 412.023 1184.9 411.409C1188.08 410.795 1191.51 410.235 1195.2 409.73C1198.92 409.188 1202.8 408.61 1206.84 407.996L1202.19 410.651C1202.22 406.606 1201.32 403.626 1199.48 401.712C1197.64 399.798 1194.53 398.841 1190.16 398.841C1187.52 398.841 1184.98 399.455 1182.52 400.683C1180.07 401.911 1178.35 404.024 1177.37 407.021L1165.46 403.283C1166.9 398.336 1169.65 394.363 1173.69 391.366C1177.77 388.368 1183.26 386.869 1190.16 386.869C1195.36 386.869 1199.93 387.718 1203.86 389.415C1207.84 391.113 1210.78 393.894 1212.69 397.758C1213.74 399.816 1214.37 401.929 1214.59 404.096C1214.81 406.227 1214.92 408.556 1214.92 411.084V447H1203.49V434.324L1205.38 436.382C1202.75 440.608 1199.66 443.714 1196.12 445.7C1192.62 447.65 1188.23 448.625 1182.95 448.625ZM1185.55 438.224C1188.52 438.224 1191.04 437.701 1193.14 436.653C1195.23 435.606 1196.89 434.324 1198.12 432.807C1199.39 431.29 1200.24 429.864 1200.67 428.527C1201.35 426.866 1201.73 424.97 1201.81 422.839C1201.91 420.672 1201.97 418.921 1201.97 417.585L1205.98 418.776C1202.04 419.39 1198.66 419.932 1195.85 420.402C1193.03 420.871 1190.61 421.323 1188.59 421.756C1186.57 422.153 1184.78 422.605 1183.23 423.11C1181.71 423.652 1180.43 424.284 1179.38 425.006C1178.33 425.729 1177.52 426.559 1176.94 427.498C1176.4 428.437 1176.13 429.539 1176.13 430.803C1176.13 432.247 1176.49 433.529 1177.21 434.649C1177.93 435.732 1178.98 436.599 1180.35 437.249C1181.76 437.899 1183.5 438.224 1185.55 438.224ZM1269.49 447V418.831C1269.49 416.989 1269.36 414.948 1269.11 412.709C1268.85 410.47 1268.26 408.321 1267.32 406.263C1266.42 404.168 1265.04 402.453 1263.2 401.116C1261.4 399.78 1258.94 399.112 1255.83 399.112C1254.17 399.112 1252.53 399.383 1250.9 399.925C1249.28 400.466 1247.8 401.405 1246.46 402.742C1245.16 404.042 1244.12 405.847 1243.32 408.159C1242.53 410.434 1242.13 413.359 1242.13 416.935L1234.38 413.63C1234.38 408.646 1235.34 404.132 1237.25 400.087C1239.2 396.042 1242.06 392.828 1245.81 390.445C1249.57 388.025 1254.19 386.815 1259.68 386.815C1264.01 386.815 1267.59 387.537 1270.41 388.982C1273.22 390.427 1275.46 392.268 1277.12 394.508C1278.79 396.747 1280.01 399.13 1280.81 401.658C1281.6 404.186 1282.11 406.588 1282.32 408.863C1282.58 411.102 1282.7 412.926 1282.7 414.334V447H1269.49ZM1228.91 447V388.494H1240.56V406.642H1242.13V447H1228.91ZM1313.2 448.625C1308.97 448.625 1305.4 447.831 1302.47 446.242C1299.55 444.616 1297.33 442.468 1295.81 439.795C1294.33 437.123 1293.59 434.179 1293.59 430.965C1293.59 428.148 1294.06 425.62 1295 423.381C1295.94 421.106 1297.38 419.156 1299.33 417.531C1301.28 415.869 1303.81 414.515 1306.92 413.468C1309.26 412.709 1312.01 412.023 1315.15 411.409C1318.33 410.795 1321.76 410.235 1325.44 409.73C1329.16 409.188 1333.04 408.61 1337.09 407.996L1332.43 410.651C1332.47 406.606 1331.56 403.626 1329.72 401.712C1327.88 399.798 1324.77 398.841 1320.4 398.841C1317.77 398.841 1315.22 399.455 1312.77 400.683C1310.31 401.911 1308.6 404.024 1307.62 407.021L1295.7 403.283C1297.15 398.336 1299.89 394.363 1303.94 391.366C1308.02 388.368 1313.51 386.869 1320.4 386.869C1325.61 386.869 1330.17 387.718 1334.11 389.415C1338.08 391.113 1341.03 393.894 1342.94 397.758C1343.99 399.816 1344.62 401.929 1344.84 404.096C1345.05 406.227 1345.16 408.556 1345.16 411.084V447H1333.73V434.324L1335.63 436.382C1332.99 440.608 1329.9 443.714 1326.36 445.7C1322.86 447.65 1318.47 448.625 1313.2 448.625ZM1315.8 438.224C1318.76 438.224 1321.29 437.701 1323.38 436.653C1325.48 435.606 1327.14 434.324 1328.37 432.807C1329.63 431.29 1330.48 429.864 1330.91 428.527C1331.6 426.866 1331.98 424.97 1332.05 422.839C1332.16 420.672 1332.21 418.921 1332.21 417.585L1336.22 418.776C1332.29 419.39 1328.91 419.932 1326.09 420.402C1323.28 420.871 1320.86 421.323 1318.83 421.756C1316.81 422.153 1315.02 422.605 1313.47 423.11C1311.95 423.652 1310.67 424.284 1309.62 425.006C1308.58 425.729 1307.76 426.559 1307.19 427.498C1306.64 428.437 1306.37 429.539 1306.37 430.803C1306.37 432.247 1306.74 433.529 1307.46 434.649C1308.18 435.732 1309.23 436.599 1310.6 437.249C1312.01 437.899 1313.74 438.224 1315.8 438.224ZM1429.53 447V411.463C1429.53 407.455 1428.53 404.331 1426.55 402.092C1424.56 399.816 1421.87 398.679 1418.47 398.679C1416.38 398.679 1414.5 399.166 1412.84 400.141C1411.18 401.08 1409.86 402.489 1408.89 404.367C1407.91 406.209 1407.42 408.412 1407.42 410.976L1401.63 407.563C1401.59 403.518 1402.49 399.961 1404.34 396.891C1406.21 393.785 1408.74 391.366 1411.92 389.632C1415.1 387.899 1418.64 387.032 1422.54 387.032C1429 387.032 1433.95 388.982 1437.38 392.882C1440.85 396.747 1442.58 401.839 1442.58 408.159V447H1429.53ZM1359.16 447V388.494H1370.69V406.642H1372.32V447H1359.16ZM1394.42 447V411.626C1394.42 407.545 1393.43 404.367 1391.44 402.092C1389.46 399.816 1386.75 398.679 1383.32 398.679C1379.99 398.679 1377.32 399.816 1375.3 402.092C1373.31 404.367 1372.32 407.328 1372.32 410.976L1366.47 407.075C1366.47 403.283 1367.41 399.871 1369.29 396.837C1371.16 393.803 1373.69 391.42 1376.87 389.686C1380.08 387.917 1383.68 387.032 1387.65 387.032C1392.02 387.032 1395.67 387.971 1398.59 389.849C1401.55 391.691 1403.76 394.219 1405.2 397.433C1406.68 400.611 1407.42 404.204 1407.42 408.213V447H1394.42ZM1473.07 448.625C1468.84 448.625 1465.27 447.831 1462.34 446.242C1459.42 444.616 1457.2 442.468 1455.68 439.795C1454.2 437.123 1453.46 434.179 1453.46 430.965C1453.46 428.148 1453.93 425.62 1454.87 423.381C1455.81 421.106 1457.25 419.156 1459.2 417.531C1461.15 415.869 1463.68 414.515 1466.79 413.468C1469.13 412.709 1471.88 412.023 1475.02 411.409C1478.2 410.795 1481.63 410.235 1485.31 409.73C1489.03 409.188 1492.91 408.61 1496.96 407.996L1492.3 410.651C1492.34 406.606 1491.43 403.626 1489.59 401.712C1487.75 399.798 1484.64 398.841 1480.27 398.841C1477.64 398.841 1475.09 399.455 1472.64 400.683C1470.18 401.911 1468.47 404.024 1467.49 407.021L1455.57 403.283C1457.02 398.336 1459.76 394.363 1463.81 391.366C1467.89 388.368 1473.38 386.869 1480.27 386.869C1485.48 386.869 1490.04 387.718 1493.98 389.415C1497.95 391.113 1500.9 393.894 1502.81 397.758C1503.86 399.816 1504.49 401.929 1504.71 404.096C1504.92 406.227 1505.03 408.556 1505.03 411.084V447H1493.6V434.324L1495.5 436.382C1492.86 440.608 1489.77 443.714 1486.23 445.7C1482.73 447.65 1478.34 448.625 1473.07 448.625ZM1475.67 438.224C1478.63 438.224 1481.16 437.701 1483.25 436.653C1485.35 435.606 1487.01 434.324 1488.24 432.807C1489.5 431.29 1490.35 429.864 1490.78 428.527C1491.47 426.866 1491.85 424.97 1491.92 422.839C1492.03 420.672 1492.08 418.921 1492.08 417.585L1496.09 418.776C1492.16 419.39 1488.78 419.932 1485.96 420.402C1483.15 420.871 1480.73 421.323 1478.7 421.756C1476.68 422.153 1474.89 422.605 1473.34 423.11C1471.82 423.652 1470.54 424.284 1469.49 425.006C1468.45 425.729 1467.63 426.559 1467.06 427.498C1466.52 428.437 1466.24 429.539 1466.24 430.803C1466.24 432.247 1466.61 433.529 1467.33 434.649C1468.05 435.732 1469.1 436.599 1470.47 437.249C1471.88 437.899 1473.61 438.224 1475.67 438.224ZM1559.6 447V418.831C1559.6 416.989 1559.47 414.948 1559.22 412.709C1558.97 410.47 1558.37 408.321 1557.43 406.263C1556.53 404.168 1555.16 402.453 1553.32 401.116C1551.51 399.78 1549.06 399.112 1545.95 399.112C1544.29 399.112 1542.65 399.383 1541.02 399.925C1539.39 400.466 1537.91 401.405 1536.58 402.742C1535.28 404.042 1534.23 405.847 1533.44 408.159C1532.64 410.434 1532.24 413.359 1532.24 416.935L1524.5 413.63C1524.5 408.646 1525.45 404.132 1527.37 400.087C1529.32 396.042 1532.17 392.828 1535.93 390.445C1539.68 388.025 1544.31 386.815 1549.8 386.815C1554.13 386.815 1557.7 387.537 1560.52 388.982C1563.34 390.427 1565.58 392.268 1567.24 394.508C1568.9 396.747 1570.13 399.13 1570.92 401.658C1571.72 404.186 1572.22 406.588 1572.44 408.863C1572.69 411.102 1572.82 412.926 1572.82 414.334V447H1559.6ZM1519.03 447V388.494H1530.67V406.642H1532.24V447H1519.03ZM1608.65 447V368.993H1640.88C1641.64 368.993 1642.61 369.029 1643.8 369.101C1644.99 369.137 1646.1 369.245 1647.11 369.426C1651.62 370.112 1655.34 371.611 1658.27 373.922C1661.23 376.234 1663.41 379.159 1664.82 382.698C1666.27 386.201 1666.99 390.102 1666.99 394.399C1666.99 398.661 1666.27 402.561 1664.82 406.1C1663.38 409.603 1661.17 412.511 1658.21 414.822C1655.29 417.133 1651.59 418.632 1647.11 419.318C1646.1 419.463 1644.98 419.571 1643.75 419.643C1642.56 419.715 1641.6 419.752 1640.88 419.752H1621.7V447H1608.65ZM1621.7 407.563H1640.34C1641.06 407.563 1641.87 407.527 1642.77 407.455C1643.68 407.382 1644.51 407.238 1645.27 407.021C1647.43 406.479 1649.13 405.522 1650.36 404.15C1651.62 402.778 1652.51 401.225 1653.01 399.491C1653.55 397.758 1653.82 396.06 1653.82 394.399C1653.82 392.738 1653.55 391.041 1653.01 389.307C1652.51 387.537 1651.62 385.966 1650.36 384.594C1649.13 383.222 1647.43 382.265 1645.27 381.723C1644.51 381.506 1643.68 381.38 1642.77 381.344C1641.87 381.272 1641.06 381.235 1640.34 381.235H1621.7V407.563ZM1702.73 448.625C1696.88 448.625 1691.77 447.307 1687.4 444.671C1683.03 442.034 1679.63 438.405 1677.21 433.782C1674.83 429.123 1673.64 423.778 1673.64 417.747C1673.64 411.608 1674.87 406.227 1677.32 401.604C1679.78 396.981 1683.19 393.37 1687.56 390.77C1691.93 388.169 1696.99 386.869 1702.73 386.869C1708.62 386.869 1713.74 388.187 1718.11 390.824C1722.48 393.46 1725.88 397.108 1728.3 401.767C1730.72 406.389 1731.93 411.716 1731.93 417.747C1731.93 423.814 1730.7 429.177 1728.24 433.836C1725.82 438.459 1722.43 442.088 1718.06 444.725C1713.69 447.325 1708.58 448.625 1702.73 448.625ZM1702.73 436.382C1707.93 436.382 1711.79 434.649 1714.32 431.182C1716.85 427.715 1718.11 423.237 1718.11 417.747C1718.11 412.077 1716.83 407.563 1714.27 404.204C1711.7 400.81 1707.86 399.112 1702.73 399.112C1699.23 399.112 1696.34 399.907 1694.06 401.496C1691.82 403.049 1690.16 405.234 1689.08 408.05C1687.99 410.831 1687.45 414.064 1687.45 417.747C1687.45 423.417 1688.73 427.95 1691.3 431.344C1693.9 434.703 1697.71 436.382 1702.73 436.382ZM1743.75 447L1743.86 368.993H1757.08V416.664L1778.48 388.494H1794.78L1772.09 417.747L1796.73 447H1779.45L1757.08 418.831V447H1743.75ZM1826.94 448.625C1821.09 448.625 1815.98 447.307 1811.61 444.671C1807.24 442.034 1803.85 438.405 1801.43 433.782C1799.04 429.123 1797.85 423.778 1797.85 417.747C1797.85 411.608 1799.08 406.227 1801.54 401.604C1803.99 396.981 1807.41 393.37 1811.78 390.77C1816.14 388.169 1821.2 386.869 1826.94 386.869C1832.83 386.869 1837.96 388.187 1842.33 390.824C1846.7 393.46 1850.09 397.108 1852.51 401.767C1854.93 406.389 1856.14 411.716 1856.14 417.747C1856.14 423.814 1854.91 429.177 1852.46 433.836C1850.04 438.459 1846.64 442.088 1842.27 444.725C1837.9 447.325 1832.79 448.625 1826.94 448.625ZM1826.94 436.382C1832.14 436.382 1836.01 434.649 1838.54 431.182C1841.06 427.715 1842.33 423.237 1842.33 417.747C1842.33 412.077 1841.05 407.563 1838.48 404.204C1835.92 400.81 1832.07 399.112 1826.94 399.112C1823.44 399.112 1820.55 399.907 1818.28 401.496C1816.04 403.049 1814.38 405.234 1813.29 408.05C1812.21 410.831 1811.67 414.064 1811.67 417.747C1811.67 423.417 1812.95 427.95 1815.51 431.344C1818.11 434.703 1821.92 436.382 1826.94 436.382ZM1867.97 447L1868.08 368.993H1881.3V416.664L1902.69 388.494H1919L1896.3 417.747L1920.95 447H1903.67L1881.3 418.831V447H1867.97Z" fill="white"/>
<g clip-path="url(#clip0_657_133)">
<path fill-rule="evenodd" clip-rule="evenodd" d="M278.858 0C432.719 0 557.447 124.728 557.447 278.588C557.447 432.448 432.719 557.176 278.858 557.176C124.998 557.176 0.270294 432.448 0.270294 278.588C0.270294 124.728 124.998 0 278.858 0Z" fill="#22C55E"/>
<path fill-rule="evenodd" clip-rule="evenodd" d="M308.891 339.49C314.907 349.123 315.285 349.754 318.805 364.127C343.369 344.06 369.231 325.804 393.904 304.278C398.993 299.841 415.275 288.265 416.892 282.41C398.346 269.852 386.655 276.461 372.863 289.931C367.685 294.987 365.279 296.794 360.35 300.978L308.891 339.49H308.891ZM93.0984 486.207C121.412 471.503 125.921 454.781 165.521 453.859C190.498 453.277 248.728 461.446 291.476 460.978C332.765 460.526 382.498 406.636 411.609 379.055L476.119 310.986C494.299 289.235 467.845 252.275 439.335 280.89L310.699 385.565C290.456 400.954 286.909 397.552 256.197 397.552C245.005 397.552 233.801 397.501 222.611 397.561C211.174 397.621 201.376 400.538 201.684 388.737C218.492 373.847 297.266 402.899 305.26 368.639C314.108 330.719 255.652 343.372 210.809 341.268C190.633 340.321 175.9 333.914 154.058 336.556C108.734 342.039 94.094 370.389 74.1495 380.657C63.4389 386.171 38.1924 398.179 28.5432 401.015C28.9243 403.51 38.6215 421.899 52.1272 440.502C67.0457 461.05 86.1886 482.042 93.0984 486.207H93.0984ZM93.32 273.795C113.816 283.603 174.778 296.861 188.28 287.109C155.111 277.637 135.328 281.593 92.6589 260.045C91.4485 266.088 92.1213 268.931 93.32 273.795ZM317.814 285.607C312.857 282.218 273.552 248.753 270.93 278.263C269.245 297.226 308.512 289.389 315.282 286.841C316.859 286.249 316.387 286.381 317.814 285.607H317.814ZM269.238 300.36C262.654 292.398 245.994 273.006 236.374 285.5C220.894 305.6 264.632 313.366 276.529 311.596L269.238 300.36V300.36ZM289.664 184.345C289.587 189.843 290.915 192.321 292.326 197.429C293.857 202.966 295.185 204.776 296.982 209.74C307.572 238.978 336.673 219.307 318.004 201.049C311.307 194.501 298.818 188.443 289.664 184.346V184.345ZM208.223 236.593C202.634 244.376 195.059 249.477 189.897 259.269C184.577 269.36 183.83 280.209 196.246 283.494C214.591 288.353 212.887 247.936 208.223 236.593H208.223ZM238.492 228.452C231.665 238.762 204.066 275.947 233.581 276.606C244.189 276.841 245.172 262.2 244.392 253.672C243.949 248.821 243.4 245.836 242.457 241.168L240.144 231.227C238.916 228.531 240.7 231.387 238.492 228.452V228.452ZM332.055 116.677C328.065 126.627 324.208 138.08 324.188 147.85C324.169 157.657 330.223 166.638 342.144 162.635C359.686 156.744 338.362 123.176 332.055 116.677ZM380.236 155.792C372.572 156.141 332.942 168.092 342.275 184.788C356.401 210.059 373.943 171.013 380.236 155.792ZM350.754 247.268C340.616 244.027 329.829 240.268 319.955 240.299C293.138 240.381 300.418 276.199 328.785 261.734C333.455 259.353 347.081 251.744 350.754 247.268V247.268ZM372.545 201.862C359.581 200.799 321.764 203.288 330.635 223.405C340.437 245.637 364.88 216.478 372.545 201.862ZM258.091 228.415C241.616 263.903 262.229 274.319 272.025 266.066C283.839 256.114 265.696 223.16 262.068 219.843L258.091 228.415ZM278.992 202.639C276.482 212.601 275.222 223.965 276.405 233.342C277.412 241.32 282.164 254.322 294.306 249.171C314.467 240.616 289.279 211.808 278.992 202.639ZM295.27 158.278C296.995 164.892 317.063 202.684 331.744 189.233C353.548 169.257 303.026 156.332 295.27 158.278ZM234.441 323.928C230.447 315.815 229.04 309.909 222.833 300.836C218.149 293.989 207.445 282.727 198.876 289.531C176.014 307.679 218.281 321.23 234.441 323.928Z" fill="white"/>
</g>
<defs>
<clipPath id="clip0_657_133">
<rect width="557.176" height="557.176" fill="white" transform="translate(0.270294)"/>
</clipPath>
</defs>
</svg>
